HIERARCHY
ROOT Hips
{
  OFFSET -33.9132 29.2015 117.021
  CHANNELS 6 Xposition Yposition Zposition Zrotation Xrotation Yrotation
  JOINT LeftUpLeg
  {
    OFFSET 8.64259 1.95398 -2.38835
    CHANNELS 3 Zrotation Xrotation Yrotation
    JOINT LeftLeg
    {
      OFFSET 43.7702 0 0
      CHANNELS 3 Zrotation Xrotation Yrotation
      JOINT LeftFoot
      {
        OFFSET 40.6238 0 0
        CHANNELS 3 Zrotation Xrotation Yrotation
        JOINT LeftToeBase
        {
          OFFSET 12.7242 0 0
          CHANNELS 3 Zrotation Xrotation Yrotation
          End Site
          {
            OFFSET 0 0 0
          }
        }
      }
    }
  }
  JOINT RightUpLeg
  {
    OFFSET -8.2249 1.95398 -2.59336
    CHANNELS 3 Zrotation Xrotation Yrotation
    JOINT RightLeg
    {
      OFFSET 43.5653 0 0
      CHANNELS 3 Zrotation Xrotation Yrotation
      JOINT RightFoot
      {
        OFFSET 40.6238 0 0
        CHANNELS 3 Zrotation Xrotation Yrotation
        JOINT RightToeBase
        {
          OFFSET 12.7242 0 0
          CHANNELS 3 Zrotation Xrotation Yrotation
          End Site
          {
            OFFSET 0 0 0
          }
        }
      }
    }
  }
  JOINT Spine
  {
    OFFSET 0.165834 0.87714 6.61349
    CHANNELS 3 Zrotation Xrotation Yrotation
    JOINT Spine1
    {
      OFFSET 7.38963 1.71661e-005 0
      CHANNELS 3 Zrotation Xrotation Yrotation
      JOINT Spine2
      {
        OFFSET 11.9445 1.14441e-005 0
        CHANNELS 3 Zrotation Xrotation Yrotation
        JOINT Spine3
        {
          OFFSET 14.7254 4.19617e-005 0
          CHANNELS 3 Zrotation Xrotation Yrotation
          JOINT Spine4
          {
            OFFSET 10.9679 0 0
            CHANNELS 3 Zrotation Xrotation Yrotation
            JOINT RightShoulder
            {
              OFFSET 2.46616 -1.6653 3.69651
              CHANNELS 3 Zrotation Xrotation Yrotation
              JOINT RightArm
              {
                OFFSET 13.0012 0 0
                CHANNELS 3 Zrotation Xrotation Yrotation
                JOINT RightForeArm
                {
                  OFFSET 28.7848 1.62311e-005 0
                  CHANNELS 3 Zrotation Xrotation Yrotation
                  JOINT RightHand
                  {
                    OFFSET 26.5688 1.62095e-005 0
                    CHANNELS 3 Zrotation Xrotation Yrotation
                    End Site
                    {
                      OFFSET 0 0 0
                    }
                  }
                }
              }
            }
            JOINT LeftShoulder
            {
              OFFSET 2.38034 -1.29275 -3.7523
              CHANNELS 3 Zrotation Xrotation Yrotation
              JOINT LeftArm
              {
                OFFSET 16.3182 6.07031e-005 0
                CHANNELS 3 Zrotation Xrotation Yrotation
                JOINT LeftForeArm
                {
                  OFFSET 27.0901 0 0
                  CHANNELS 3 Zrotation Xrotation Yrotation
                  JOINT LeftHand
                  {
                    OFFSET 24.5451 1.51738e-005 0
                    CHANNELS 3 Zrotation Xrotation Yrotation
                    End Site
                    {
                      OFFSET 0 0 0
                    }
                  }
                }
              }
            }
            JOINT Neck
            {
              OFFSET 5.0226 -0.0266342 0
              CHANNELS 3 Zrotation Xrotation Yrotation
              JOINT Head
              {
                OFFSET 6.69364 2.86102e-005 0
                CHANNELS 3 Zrotation Xrotation Yrotation
                End Site
                {
                  OFFSET 0 0 0
                }
              }
            }
          }
        }
      }
    }
  }
}
MOTION
Frames:	12
Frame Time:	0.0416667
-284.8 92.1139 292.448 103.369 38.6941 87.0293 -168.066 -15.5614 99.0813 -40.6268 14.7762 2.70998 63.3504 2.67925 1.93406 22.419 -4.60164 3.28178 176.897 16.3889 98.1413 -31.5994 -7.35574 1.68617 64.7727 -1.88697 2.24974 18.6599 4.2549 1.40852 -0.417563 7.81139 -90.6512 11.2439 -1.13416 -1.18432 -0.42708 -1.18517 -1.13326 -22.9598 -0.725825 -1.47038 -2.94719 -0.72582 -1.47039 93.6492 -25.6413 -100.744 53.0833 8.28609 9.34315 -3.96086 -16.4538 -4.92022 -13.3523 0.639046 -11.0585 -87.6396 -48.1949 81.943 -22.907 -10.3924 -23.8346 -9.97309 34.945 -0.0105622 2.89507 -0.641481 -24.6057 0.288534 1.71935 -2.16969 -7.09058 2.00673 0.143868 
-277.861 93.0754 287.573 105.743 36.4428 86.116 -167.623 -3.88486 101.267 -57.7544 13.9231 1.73 53.4172 -4.0023 0.0347357 3.72445 -12.4666 -0.251409 177.123 8.61844 98.9512 -32.0721 -11.9973 1.36926 68.1742 -4.81303 -2.89281 22.4483 2.50058 1.41886 0.125409 8.12984 -90.6331 10.6119 -0.0414965 -1.2555 -1.05957 -0.0966945 -1.25246 -23.5903 0.337737 -1.20994 -3.5777 0.337734 -1.20994 93.4996 -25.8359 -101.003 52.4787 7.23626 5.48951 -4.11281 -19.9012 -4.94523 -13.329 1.09757 -15.1323 -87.0482 -47.9006 82.7995 -24.1778 -10.2444 -15.9922 -10.1294 34.9318 -0.0105605 9.76918 -1.47008 -18.5208 2.91735 0.899721 -2.26721 -6.71671 1.21922 1.39992 
-272.944 94.1619 283.752 103.793 41.0461 85.7035 -172.043 11.0207 95.2027 -64.0059 10.6648 2.5308 66.6446 5.09432 1.90571 6.2402 -11.9857 1.01105 176.158 4.64717 97.575 -29.3655 -6.86013 1.60041 71.9603 -6.33025 -0.0643959 21.7883 2.43252 2.56349 0.218422 7.99836 -90.4844 10.8785 0.211004 -0.982827 -0.792828 0.167566 -0.99117 -23.3254 0.496618 -0.873992 -3.31275 0.496627 -0.87399 93.3351 -26.2605 -101.219 50.6139 6.14139 0.0343942 -4.5014 -28.18 -5.06452 -14.7975 1.46184 -17.052 -86.8615 -47.5345 83.0252 -24.1426 -9.86079 -9.72027 -10.4417 35.9313 -0.0106924 8.46311 -0.76516 -14.3567 1.80077 -1.29411 -2.95453 -4.34949 -0.865557 3.1508 
-267.542 94.9359 278.52 102.638 40.8947 83.5013 -173.866 18.2359 89.1844 -50.0764 1.94042 0.577635 71.4235 8.17014 -0.128839 9.66322 -14.3601 7.3064 174.973 -1.48539 94.1945 -26.3524 -6.54779 0.443217 75.4177 -7.49321 2.31353 23.0517 2.09008 1.84749 0.7481 8.05508 -90.1221 10.7679 1.43343 -0.375477 -0.902379 1.41551 -0.438214 -23.4439 1.47998 0.0727765 -3.43124 1.47999 0.0727842 93.267 -26.0841 -101.421 48.5506 5.02018 -6.33085 -4.57923 -29.7202 -5.09233 -18.0955 1.89708 -17.5442 -86.6018 -46.1325 83.1917 -24.395 -11.341 -2.78376 -10.1682 32.6794 -0.0102861 6.88657 -0.72042 -15.7092 2.05205 -2.71293 -2.89828 -3.89267 -2.25483 3.6051 
-261.984 94.4462 273.356 102.27 39.0263 81.8694 -174.855 18.3618 86.2512 -22.9278 -0.641277 -1.7 62.2632 3.24489 -0.60378 15.284 -10.3793 6.49553 173.88 -6.55649 91.5264 -25.8265 -9.06892 -0.801564 79.4358 -9.59038 3.00143 24.1586 2.50734 -1.20069 1.10064 8.19987 -89.9653 10.4769 2.20837 -0.126676 -1.19219 2.20067 -0.223816 -23.7418 2.1443 0.543206 -3.72915 2.14431 0.543193 93.1249 -24.5667 -102.241 46.0112 3.98985 -13.8298 -4.7194 -32.3866 -5.15002 -18.7028 1.81887 -16.6543 -86.2873 -48.238 84.026 -21.1515 -12.4183 5.55059 -9.94843 31.4966 -0.0101538 5.82855 -0.595982 -15.2484 2.92141 -2.3019 1.00379 -3.37729 -2.44637 2.28889 
-255.414 93.0011 267.16 102.671 37.8743 81.2759 -177.168 17.9876 85.861 -7.18935 -4.79209 -2.12224 62.1101 2.61808 -2.63112 14.0107 -11.0789 6.39732 171.849 -14.0715 89.1216 -23.6168 -11.2876 -1.03526 81.9489 -11.7927 1.87533 26.544 1.18633 -0.537884 1.24955 8.32003 -89.9579 10.2368 2.50892 -0.130615 -1.43172 2.50072 -0.24099 -23.9855 2.43212 0.629918 -3.97286 2.4321 0.629908 92.4337 -24.7619 -103.68 42.5747 4.1527 -19.9416 -4.7224 -32.4423 -5.15117 -21.2747 2.33171 -17.9822 -86.5107 -50.2778 84.0045 -18.4576 -14.1764 11.7009 -9.69778 25.9288 -0.013324 5.12299 -0.530606 -14.8064 3.11249 -1.49788 2.78718 -1.96039 -1.9285 1.94417 
-247.866 91.9001 260.096 102.06 34.8904 81.0123 -175.913 19.7437 85.3838 -13.6731 -3.08395 -2.77084 57.5398 -1.03206 -2.41285 11.2644 -12.5364 6.06542 168.479 -19.9516 84.4983 -22.8381 -17.7998 -1.83709 79.5775 -12.4222 -1.36296 32.3975 -1.53117 -0.833225 1.54677 8.31923 -89.8376 10.2392 3.15603 0.0517465 -1.42795 3.15524 -0.0873529 -23.9915 2.99446 0.998723 -3.97882 2.99446 0.998722 92.6452 -24.2897 -103.39 43.2698 2.6858 -23.666 -4.69225 -31.8782 -5.13718 -26.7406 2.61853 -16.551 -85.6516 -51.6141 85.4829 -16.5233 -16.8863 11.8951 -8.9727 23.7601 -0.0161956 3.72807 -0.06124 -10.5203 5.65834 -1.00751 3.33959 -2.8888 -1.61421 1.6034 
-239.951 92.4274 252.75 100.548 33.1538 79.7123 -173.317 20.6093 83.146 -26.0702 -0.0665516 -4.7661 61.189 0.184258 -0.334135 6.81869 -14.2764 4.6561 168.358 -17.5838 81.5383 -32.7247 -19.3566 -5.00712 66.9336 -4.47052 -2.7247 43.3141 -6.9127 4.67998 1.49727 8.10459 -89.4859 10.657 3.21855 0.727932 -1.01003 3.24745 0.58543 -23.57 2.85088 1.66226 -3.55739 2.85088 1.66226 92.3619 -23.8534 -104.18 46.8102 1.04127 -21.8413 -4.74351 -32.8309 -5.16016 -25.7809 3.15298 -19.4239 -85.8314 -51.221 85.1617 -17.1887 -18.0119 9.74996 -8.66039 21.2989 -0.0333713 3.82537 0.0277355 -9.08366 6.00221 -0.499394 2.95941 -3.51761 -1.06058 0.844662 
-233.28 93.3866 246.232 101.228 34.1749 77.0767 -173.046 15.0243 80.3937 -29.1336 1.34018 -5.71283 68.0864 5.06821 1.37299 7.87271 -13.7338 4.80304 171.021 -6.15931 79.9998 -55.4076 -20.7121 -6.62377 55.0995 3.47208 0.813851 17.1214 4.01291 3.99078 1.02671 8.11582 -89.2156 10.6275 2.40574 1.34133 -1.04181 2.46244 1.23411 -23.5835 1.89146 2.00239 -3.57085 1.89144 2.00239 92.1615 -24.8136 -104.252 49.1681 0.743027 -18.5013 -4.98055 -37.0018 -5.27375 -21.8115 3.10022 -21.6959 -86.6792 -48.8055 83.5171 -21.2138 -16.4096 2.00581 -9.18309 21.7594 -0.0180832 5.2658 -0.248271 -11.5775 5.1079 0.266478 1.3158 -3.75094 0.00743191 1.52735 
-227.43 94.6412 240.974 101.464 34.2848 77.9469 -173.788 8.90596 80.386 -28.1818 0.802911 -5.09064 72.5201 7.80454 1.18305 10.2481 -12.9874 5.81793 175.74 4.6436 84.0498 -65.7749 -17.9841 -6.54753 61.7395 -1.44177 -1.7185 24.1679 0.318239 6.18755 0.633994 8.08206 -89.4013 10.7007 1.53826 1.04873 -0.969675 1.58292 0.980004 -23.5061 1.15197 1.46254 -3.49341 1.15198 1.46254 91.7846 -25.433 -104.832 50.6995 1.54932 -13.7503 -5.07433 -38.541 -5.3227 -21.8186 2.71736 -19.678 -86.5825 -48.8798 83.6767 -22.3034 -14.0838 -9.03645 -9.82375 22.9988 -0.0213918 9.01363 -0.878339 -14.0725 3.17735 1.26649 0.798392 -4.38726 1.09152 1.70809 
-221.394 96.0772 235.456 102.346 34.6639 79.315 -175.3 0.255603 81.9891 -23.2262 -0.25906 -3.11406 74.7626 8.78971 0.162242 14.6775 -11.3035 7.40116 179.172 12.7804 87.5794 -58.7557 -8.84993 -5.98568 68.5412 -6.22679 -2.41177 23.236 1.0254 5.1326 0.366407 8.14627 -89.6515 10.5845 0.890148 0.616715 -1.08621 0.916425 0.576934 -23.6222 0.663659 0.855727 -3.6095 0.66364 0.855722 91.7403 -26.2424 -104.616 51.4558 3.36589 -7.41786 -4.87 -35.1047 -5.21862 -19.6507 2.54832 -20.4673 -86.5799 -48.093 83.5544 -22.7161 -11.9872 -21.4592 -10.1911 24.564 -0.0205163 10.961 -1.32328 -16.0422 1.85331 1.67216 -1.29428 -5.4094 1.82279 1.34861 
-215.398 96.3108 231.124 101.756 38.437 82.1603 -174.777 -4.58999 84.7099 -21.3452 3.78747 -1.45409 77.8435 10.2474 -0.613972 15.2311 -10.8385 7.18013 -179.877 17.7395 92.2771 -40.2809 -6.6005 -3.87895 68.2184 -6.43132 -2.44244 22.2483 2.26781 2.42137 -0.233449 8.12618 -89.9488 10.6211 -0.441375 0.14113 -1.04982 -0.434746 0.160407 -23.5853 -0.463405 0.00194272 -3.57261 -0.4634 0.00194297 91.4436 -27.808 -104.662 50.4798 5.52814 -2.07848 -4.84445 -34.6547 -5.20679 -17.2324 1.83496 -17.7648 -87.1544 -45.3622 82.1786 -22.8192 -10.3244 -31.6541 -10.4458 24.0898 -0.0178878 10.039 -1.81852 -20.5108 0.975616 1.46275 -4.43219 -4.56161 2.06478 2.33223 
